<mxfile host="app.diagrams.net" modified="2023-10-30T20:34:37.770Z" agent="Mozilla/5.0 (Macintosh; Intel Mac OS X 10_15_7) AppleWebKit/537.36 (KHTML, like Gecko) Chrome/118.0.0.0 Safari/537.36" version="22.0.8" etag="MuV-QnjP5kbaL4nr7XY2" type="github">
  <diagram name="Sayfa -1" id="bluusXG4o_ZT9hqFKZlR">
    <mxGraphModel>
      <root>
        <mxCell id="0" />
        <mxCell id="1" parent="0" />
      </root>
    </mxGraphModel>
  </diagram>
</mxfile>
